HIERARCHY
ROOT hip
{
	OFFSET 0.000000 0.000000 0.000000 
	CHANNELS 6 Xposition Yposition Zposition Xrotation Zrotation Yrotation
	JOINT abdomen
	{
		OFFSET 0.000000 3.402643 0.000000 
		CHANNELS 3 Xrotation Zrotation Yrotation
		JOINT chest
		{
			OFFSET 0.000000 8.438565 -0.680529 
			CHANNELS 3 Xrotation Zrotation Yrotation
			JOINT neck
			{
				OFFSET 0.000000 10.207942 -0.272212 
				CHANNELS 3 Xrotation Zrotation Yrotation
				JOINT head
				{
					OFFSET 0.000000 3.130431 0.000000 
					CHANNELS 3 Xrotation Zrotation Yrotation
					End Site
					{
						OFFSET 0.000000 3.130435 0.000000 
					}
				}
			}
			JOINT lCollar
			{
				OFFSET 3.470700 6.669187 -0.816635 
				CHANNELS 3 Yrotation Zrotation Xrotation
				JOINT lShldr
				{
					OFFSET 3.198488 0.000000 0.000000 
					CHANNELS 3 Zrotation Yrotation Xrotation
					JOINT lForeArm
					{
						OFFSET 10.139888 0.000000 0.000000 
						CHANNELS 3 Yrotation Zrotation Xrotation
						JOINT lHand
						{
							OFFSET 8.370511 0.000000 0.000000 
							CHANNELS 3 Zrotation Yrotation Xrotation
							End Site
							{
								OFFSET 4.083176 0.000000 0.000000 
							}
						}
					}
				}
			}
			JOINT rCollar
			{
				OFFSET -3.470700 6.669187 -0.816635 
				CHANNELS 3 Yrotation Zrotation Xrotation
				JOINT rShldr
				{
					OFFSET -3.198488 0.000000 0.000000 
					CHANNELS 3 Zrotation Yrotation Xrotation
					JOINT rForeArm
					{
						OFFSET -10.139888 0.000000 0.000000 
						CHANNELS 3 Yrotation Zrotation Xrotation
						JOINT rHand
						{
							OFFSET -8.370511 0.000000 0.000000 
							CHANNELS 3 Zrotation Yrotation Xrotation
							End Site
							{
								OFFSET -4.083176 0.000000 0.000000 
							}
						}
					}
				}
			}
		}
	}
	JOINT lThigh
	{
		OFFSET 5.308129 -1.633274 1.361059 
		CHANNELS 3 Xrotation Zrotation Yrotation
		JOINT lShin
		{
			OFFSET -2.041588 -20.007561 0.000000 
			CHANNELS 3 Xrotation Zrotation Yrotation
			JOINT lFoot
			{
				OFFSET 0.000000 -19.190928 -1.224953 
				CHANNELS 3 Xrotation Yrotation Zrotation
				End Site
				{
					OFFSET 0.000000 -2.449906 4.627600 
				}
			}
		}
	}
	JOINT rThigh
	{
		OFFSET -5.308129 -1.633274 1.361059 
		CHANNELS 3 Xrotation Zrotation Yrotation
		JOINT rShin
		{
			OFFSET 2.041588 -20.007561 0.000000 
			CHANNELS 3 Xrotation Zrotation Yrotation
			JOINT rFoot
			{
				OFFSET 0.000000 -19.190928 -1.224953 
				CHANNELS 3 Xrotation Yrotation Zrotation
				End Site
				{
					OFFSET 0.000000 -2.449906 4.627600 
				}
			}
		}
	}
}
MOTION
Frames: 6
Frame Time: 0.033333
-55.022774 50.975395 -64.486160 -10.810547 5.458984 36.651318 34.587910 -0.055819 2.028598 -18.622969 9.179039 1.798125 -6.615420 1.361154 2.103062 7.975330 -8.364999 2.852899 -2.596876 -5.229848 -0.002411 -77.253792 16.625814 5.344441 -41.384392 4.379567 58.968006 -16.033840 15.449394 -4.375912 11.738038 -2.394044 -0.000981 69.205170 -0.602305 8.931728 44.353447 -2.977867 35.123726 -5.514760 -3.977157 0.379547 -18.766605 9.480684 5.525258 48.709461 -0.215680 -3.447273 17.210697 -4.483554 -10.948483 2.409742 3.317098 0.390836 29.264677 1.180579 2.469001 -2.933293 7.448658 12.658854 
-53.862015 50.825378 -63.293636 -11.240234 4.687500 35.273434 34.769684 0.295313 3.042817 -18.536423 8.534302 2.628091 -6.681756 1.458300 2.144499 7.534226 -8.285240 2.945997 -2.665513 -5.171311 -0.005917 -76.936562 18.557667 5.187879 -40.828785 4.390439 59.097603 -16.526251 15.257314 -4.470945 11.768146 -2.275341 -0.004183 68.202469 2.938744 9.617369 45.825443 -2.966715 35.051258 -5.433294 -3.765610 0.350517 -19.014135 9.971202 5.782713 39.255962 -0.736737 -3.016579 15.414752 -2.853528 -11.499570 3.386424 3.640140 0.970177 31.315966 1.087668 2.617923 -4.014303 8.355927 12.870331 
-52.641582 50.628136 -62.013905 -11.689452 4.062500 34.346394 34.820328 0.656520 3.779236 -18.439806 8.016492 3.196095 -6.631322 1.632244 2.171616 7.358222 -8.147836 3.010588 -2.734124 -4.985965 -0.003225 -76.950737 20.077728 4.444463 -39.870777 4.421813 59.864025 -17.004690 15.004030 -4.533073 11.847076 -2.185320 -0.000051 67.569481 5.613791 9.565193 47.278568 -2.961936 34.962440 -5.560940 -3.773654 0.360141 -18.218229 10.172814 5.506354 30.065887 -1.148726 -2.521452 14.353936 -1.257086 -11.940503 4.589070 3.856793 1.411866 33.319122 0.989559 2.721488 -4.717148 9.257777 13.061713 
-51.374897 50.409752 -60.693344 -12.041016 3.584108 33.632481 34.755741 0.906815 4.381723 -18.343096 7.547506 3.685970 -6.475174 1.799026 2.160370 7.270508 -8.010769 3.023357 -2.822333 -4.888416 -0.006888 -76.951988 21.411863 3.496116 -38.834446 4.460655 60.788601 -17.296816 14.787400 -4.551004 11.866984 -2.116415 -0.003833 67.088638 7.714152 9.159719 48.688934 -2.949981 34.858479 -5.705697 -3.597928 0.350364 -15.902251 10.073649 4.779567 19.378761 -1.533523 -1.871758 15.202328 0.294559 -12.307451 5.878703 3.779203 1.638669 35.281551 0.901329 2.842678 -5.014572 10.308593 13.210915 
-50.026913 50.171558 -59.291855 -12.412109 3.378906 33.213467 34.558842 1.086983 4.799460 -18.138758 7.088017 4.040898 -6.147023 1.959287 2.061012 7.241967 -7.795809 2.946247 -2.988106 -4.801114 -0.005904 -77.020470 22.249847 2.142770 -37.527081 4.516030 61.980530 -17.798271 14.503947 -4.600112 11.809049 -2.026384 -0.004901 66.855721 8.977485 8.536490 49.958927 -2.918997 34.402496 -6.292652 -3.473956 0.379061 -12.583949 9.772000 3.555067 9.253314 -1.786507 -1.205894 17.431250 1.397960 -12.676407 7.283865 3.358935 1.440561 37.429924 0.793257 2.945018 -4.628120 11.738217 13.270560 
-48.582428 49.929024 -57.816204 -12.724610 3.544922 33.007813 34.269814 1.014076 4.953524 -17.982910 6.814186 4.238780 -5.652948 2.000760 1.963949 7.419866 -7.444947 2.823087 -2.948908 -4.820623 -0.003639 -77.108780 22.689362 0.456139 -36.129948 4.587461 63.565872 -18.353085 14.113221 -4.626653 11.712004 -1.955474 -0.003135 66.860519 9.233619 7.832566 51.103649 -2.868963 33.748310 -6.721770 -3.303963 0.388430 -9.694227 9.196106 2.621843 2.693919 -1.884655 -0.727874 19.754568 1.465976 -12.725396 8.624448 2.400167 0.856449 39.987331 0.675293 3.070476 -3.173173 13.787251 13.102872 
